<svg xmlns="http://www.w3.org/2000/svg" viewBox="0 0 19.97 20">
    <path d="M14.49 18.27v-5l1.92 1.89A8 8 0 0 0 18 11.75a8.23 8.23 0 0 0-.14-4.06 8.11 8.11 0 0 0-2.08-3.53A8.25 8.25 0 0 0 10 1.77h-.29V0H10a10 10 0 0 1 3.78.75A9.84 9.84 0 0 1 17 2.93a9.73 9.73 0 0 1 2.54 4.31 9.94 9.94 0 0 1-1.94 9.14l2 2zM10 20a10.08 10.08 0 0 1-3.8-.75 10 10 0 0 1-5.81-6.48 10 10 0 0 1 1.94-9.15l-2-1.95 5.13.05v5L3.57 4.86a8.07 8.07 0 0 0-1.63 3.4 8.21 8.21 0 0 0 .13 4.05 8.12 8.12 0 0 0 2.1 3.52A8.17 8.17 0 0 0 10 18.25h.29V20z"/>
</svg>