<svg xmlns="http://www.w3.org/2000/svg" width="897.673" height="897.673" viewBox="0 0 897.673 897.673">
    <path d="M859.877 855.354L606.397 23.22C602.194 9.428 589.468 0 575.048 0H322.625c-14.42 0-27.147 9.426-31.348 23.22L37.795 855.355c-6.413 21.055 9.338 42.318 31.347 42.318h181.07c15.247 0 28.48-10.515 31.923-25.367l38.312-165.216h256.78l38.312 165.215c3.442 14.853 16.675 25.367 31.92 25.367h181.072c22.007 0 37.76-21.263 31.345-42.318zm-411.04-331.94h-85.58l15.192-62.148c22.095-85.624 44.19-194.726 66.29-284.493H452.932c22.097 89.767 44.193 198.87 66.29 284.493l15.19 62.147h-85.577z"/>
</svg>