
<svg version="1.1" xmlns="http://www.w3.org/2000/svg"
	 viewBox="0 0 421.782 421.782" style="enable-background:new 0 0 421.782 421.782;" xml:space="preserve">
<g>
	<path d="M166.782,250.865c0-4.142-3.358-7.5-7.5-7.5H7.5c-4.142,0-7.5,3.358-7.5,7.5c0,4.142,3.358,7.5,7.5,7.5h151.782
		C163.424,258.365,166.782,255.007,166.782,250.865z"/>
	<path d="M414.282,243.365H262.5c-4.142,0-7.5,3.358-7.5,7.5c0,4.142,3.358,7.5,7.5,7.5h151.782c4.142,0,7.5-3.358,7.5-7.5
		C421.782,246.723,418.424,243.365,414.282,243.365z"/>
	<path d="M316.571,138.086c-4.142,0-7.5,3.358-7.5,7.5v42.985c0,16.166,13.153,29.319,29.32,29.319
		c16.167,0,29.32-13.153,29.32-29.319c0-4.142-3.358-7.5-7.5-7.5s-7.5,3.358-7.5,7.5c0,7.895-6.424,14.319-14.32,14.319
		c-7.896,0-14.32-6.424-14.32-14.319v-42.985C324.071,141.444,320.713,138.086,316.571,138.086z"/>
	<path d="M316.571,123.931c1.97,0,3.91-0.8,5.3-2.2c1.4-1.4,2.2-3.33,2.2-5.3c0-1.98-0.8-3.91-2.2-5.31
		c-1.39-1.39-3.33-2.19-5.3-2.19c-1.97,0-3.91,0.8-5.3,2.19c-1.4,1.4-2.2,3.33-2.2,5.31c0,1.97,0.8,3.9,2.2,5.3
		C312.661,123.131,314.601,123.931,316.571,123.931z"/>
	<path d="M37.085,217.89c4.142,0,7.5-3.358,7.5-7.5v-57.549h77.612v57.549c0,4.142,3.358,7.5,7.5,7.5c4.142,0,7.5-3.358,7.5-7.5
		V80.291c0-4.142-3.358-7.5-7.5-7.5c-4.142,0-7.5,3.358-7.5,7.5v57.55H44.585v-57.55c0-4.142-3.358-7.5-7.5-7.5
		c-4.142,0-7.5,3.358-7.5,7.5V210.39C29.585,214.532,32.943,217.89,37.085,217.89z"/>
	<path d="M298.356,320.198c0.072-0.107,0.134-0.218,0.199-0.328c0.059-0.1,0.122-0.198,0.178-0.301
		c0.061-0.114,0.112-0.231,0.167-0.347c0.05-0.105,0.102-0.209,0.147-0.317c0.047-0.114,0.085-0.23,0.126-0.347
		c0.042-0.115,0.085-0.228,0.122-0.347c0.035-0.116,0.061-0.233,0.09-0.351c0.03-0.12,0.064-0.239,0.088-0.361
		c0.027-0.136,0.043-0.273,0.063-0.41c0.015-0.105,0.035-0.209,0.045-0.315c0.049-0.493,0.049-0.99,0-1.482
		c-0.01-0.107-0.03-0.21-0.045-0.315c-0.019-0.137-0.036-0.274-0.063-0.411c-0.024-0.122-0.058-0.24-0.088-0.36
		c-0.03-0.117-0.055-0.235-0.09-0.351c-0.036-0.118-0.08-0.231-0.122-0.347c-0.041-0.116-0.08-0.233-0.126-0.347
		c-0.045-0.108-0.098-0.211-0.147-0.317c-0.055-0.116-0.106-0.233-0.167-0.347c-0.055-0.103-0.118-0.2-0.177-0.3
		c-0.066-0.11-0.128-0.222-0.2-0.329c-0.075-0.112-0.158-0.217-0.239-0.324c-0.066-0.088-0.128-0.179-0.198-0.265
		c-0.157-0.191-0.323-0.376-0.499-0.551l-25.455-25.455c-2.929-2.929-7.678-2.929-10.606,0c-2.929,2.929-2.929,7.678,0,10.606
		l12.653,12.653H147.77l12.652-12.652c2.929-2.929,2.929-7.678,0-10.606c-2.929-2.929-7.678-2.929-10.606,0l-25.444,25.444
		c-0.181,0.18-0.352,0.37-0.514,0.567c-0.054,0.065-0.1,0.135-0.15,0.201c-0.098,0.127-0.196,0.254-0.285,0.388
		c-0.063,0.094-0.117,0.192-0.175,0.288c-0.068,0.113-0.139,0.224-0.201,0.34c-0.055,0.103-0.102,0.21-0.151,0.314
		c-0.055,0.116-0.113,0.23-0.163,0.35c-0.043,0.104-0.078,0.211-0.116,0.318c-0.045,0.124-0.092,0.247-0.131,0.374
		c-0.033,0.109-0.057,0.219-0.084,0.329c-0.032,0.127-0.067,0.252-0.093,0.381c-0.025,0.13-0.041,0.261-0.06,0.392
		c-0.016,0.111-0.037,0.22-0.048,0.333c-0.049,0.493-0.049,0.989,0,1.482c0.01,0.101,0.029,0.198,0.043,0.297
		c0.02,0.144,0.037,0.287,0.066,0.43c0.023,0.115,0.055,0.227,0.083,0.34c0.031,0.125,0.059,0.25,0.096,0.373
		c0.034,0.11,0.075,0.216,0.113,0.324c0.044,0.124,0.085,0.248,0.135,0.369c0.041,0.099,0.089,0.192,0.134,0.289
		c0.059,0.126,0.115,0.253,0.181,0.376c0.048,0.089,0.103,0.173,0.154,0.26c0.073,0.124,0.143,0.248,0.224,0.368
		c0.061,0.091,0.129,0.176,0.194,0.264c0.08,0.109,0.156,0.22,0.243,0.326c0.111,0.135,0.231,0.261,0.351,0.388
		c0.049,0.052,0.091,0.107,0.142,0.157l25.456,25.456c1.464,1.464,3.384,2.197,5.303,2.197c1.919,0,3.839-0.732,5.303-2.197
		c2.929-2.929,2.929-7.678,0-10.606l-12.654-12.654h126.244l-12.653,12.653c-2.929,2.929-2.929,7.678,0,10.606
		c1.464,1.464,3.384,2.197,5.303,2.197c1.919,0,3.839-0.732,5.303-2.197l25.455-25.454c0.175-0.175,0.341-0.36,0.499-0.551
		c0.07-0.086,0.131-0.176,0.197-0.263C298.197,320.417,298.281,320.31,298.356,320.198z"/>
</g>
</svg>
